<?xml version="1.0" encoding="UTF-8" standalone="no"?>
<!DOCTYPE svg PUBLIC "-//W3C//DTD SVG 1.1//EN"
 "http://www.w3.org/Graphics/SVG/1.1/DTD/svg11.dtd">
<!-- Generated by graphviz version 2.40.1 (20161225.0304)
 -->
<!-- Title: %3 Pages: 1 -->
<svg width="1196pt" height="449pt"
 viewBox="0.00 0.00 1196.00 449.00" xmlns="http://www.w3.org/2000/svg" xmlns:xlink="http://www.w3.org/1999/xlink">
<g id="graph0" class="graph" transform="scale(1 1) rotate(0) translate(4 445)">
<title>%3</title>
<polygon fill="#ffffff" stroke="transparent" points="-4,4 -4,-445 1192,-445 1192,4 -4,4"/>
<g id="clust1" class="cluster">
<title>cluster_bowtie</title>
<polygon fill="none" stroke="#000000" points="8,-8 8,-350 1180,-350 1180,-8 8,-8"/>
<text text-anchor="middle" x="594" y="-334.8" font-family="Times,serif" font-size="14.00" fill="#000000">Bowtie</text>
</g>
<g id="clust2" class="cluster">
<title>cluster_untyped</title>
<polygon fill="none" stroke="#ff0000" points="16,-88 16,-238 296,-238 296,-88 16,-88"/>
<text text-anchor="middle" x="156" y="-222.8" font-family="Times,serif" font-size="14.00" fill="#000000">Untyped</text>
</g>
<g id="clust5" class="cluster">
<title>cluster_core</title>
<polygon fill="none" stroke="#4b0082" points="304,-16 304,-163 458,-163 458,-16 304,-16"/>
<text text-anchor="middle" x="381" y="-147.8" font-family="Times,serif" font-size="14.00" fill="#000000">Core</text>
</g>
<g id="clust6" class="cluster">
<title>cluster_type</title>
<polygon fill="none" stroke="#0000ff" points="898,-16 898,-163 1172,-163 1172,-16 898,-16"/>
<text text-anchor="middle" x="1035" y="-147.8" font-family="Times,serif" font-size="14.00" fill="#000000">Type</text>
</g>
<g id="clust8" class="cluster">
<title>cluster_syntax</title>
<polygon fill="none" stroke="#00cd00" points="466,-88 466,-238 890,-238 890,-88 466,-88"/>
<text text-anchor="middle" x="678" y="-222.8" font-family="Times,serif" font-size="14.00" fill="#000000">Surface</text>
</g>
<g id="clust10" class="cluster">
<title>cluster_executable</title>
<polygon fill="none" stroke="#000000" points="506,-358 506,-433 582,-433 582,-358 506,-358"/>
<text text-anchor="middle" x="544" y="-417.8" font-family="Times,serif" font-size="14.00" fill="#000000">executable</text>
</g>
<!-- Untyped.Erase -->
<g id="node1" class="node">
<title>Untyped.Erase</title>
<ellipse fill="none" stroke="#000000" cx="225" cy="-189" rx="63.0888" ry="18"/>
<text text-anchor="middle" x="225" y="-185.3" font-family="Times,serif" font-size="14.00" fill="#000000">Untyped.Erase</text>
</g>
<!-- Untyped.Expr -->
<g id="node3" class="node">
<title>Untyped.Expr</title>
<ellipse fill="none" stroke="#000000" cx="214" cy="-114" rx="60.3893" ry="18"/>
<text text-anchor="middle" x="214" y="-110.3" font-family="Times,serif" font-size="14.00" fill="#000000">Untyped.Expr</text>
</g>
<!-- Untyped.Erase&#45;&gt;Untyped.Expr -->
<g id="edge2" class="edge">
<title>Untyped.Erase&#45;&gt;Untyped.Expr</title>
<path fill="none" stroke="#000000" d="M222.3372,-170.8446C221.0671,-162.1849 219.5191,-151.6301 218.1033,-141.9768"/>
<polygon fill="#000000" stroke="#000000" points="221.5525,-141.3744 216.6383,-131.9882 214.6265,-142.3903 221.5525,-141.3744"/>
</g>
<!-- Core.Typecheck -->
<g id="node4" class="node">
<title>Core.Typecheck</title>
<ellipse fill="none" stroke="#000000" cx="381" cy="-114" rx="68.7879" ry="18"/>
<text text-anchor="middle" x="381" y="-110.3" font-family="Times,serif" font-size="14.00" fill="#000000">Core.Typecheck</text>
</g>
<!-- Untyped.Erase&#45;&gt;Core.Typecheck -->
<!-- Core.Expr -->
<g id="node5" class="node">
<title>Core.Expr</title>
<ellipse fill="none" stroke="#000000" cx="381" cy="-42" rx="47.3916" ry="18"/>
<text text-anchor="middle" x="381" y="-38.3" font-family="Times,serif" font-size="14.00" fill="#000000">Core.Expr</text>
</g>
<!-- Untyped.Erase&#45;&gt;Core.Expr -->
<g id="edge4" class="edge">
<title>Untyped.Erase&#45;&gt;Core.Expr</title>
<path fill="none" stroke="#000000" d="M267.3902,-175.4829C273.2441,-172.1497 278.7095,-168.0426 283,-163 305.3557,-136.7256 282.142,-115.4785 303,-88 312.1131,-75.9943 325.3405,-66.5293 338.3222,-59.3857"/>
<polygon fill="#000000" stroke="#000000" points="339.9267,-62.4964 347.2168,-54.8084 336.7236,-56.2722 339.9267,-62.4964"/>
</g>
<!-- Untyped.Eval -->
<g id="node2" class="node">
<title>Untyped.Eval</title>
<ellipse fill="none" stroke="#000000" cx="84" cy="-189" rx="59.5901" ry="18"/>
<text text-anchor="middle" x="84" y="-185.3" font-family="Times,serif" font-size="14.00" fill="#000000">Untyped.Eval</text>
</g>
<!-- Untyped.Eval&#45;&gt;Untyped.Expr -->
<g id="edge1" class="edge">
<title>Untyped.Eval&#45;&gt;Untyped.Expr</title>
<path fill="none" stroke="#000000" d="M111.8883,-172.9106C130.995,-161.8875 156.5356,-147.1525 177.2932,-135.177"/>
<polygon fill="#000000" stroke="#000000" points="179.245,-138.0917 186.1579,-130.0628 175.7469,-132.0284 179.245,-138.0917"/>
</g>
<!-- Untyped.Expr&#45;&gt;Core.Expr -->
<!-- Core.Typecheck&#45;&gt;Core.Expr -->
<g id="edge3" class="edge">
<title>Core.Typecheck&#45;&gt;Core.Expr</title>
<path fill="none" stroke="#000000" d="M381,-95.8314C381,-88.131 381,-78.9743 381,-70.4166"/>
<polygon fill="#000000" stroke="#000000" points="384.5001,-70.4132 381,-60.4133 377.5001,-70.4133 384.5001,-70.4132"/>
</g>
<!-- Type.Parse -->
<g id="node6" class="node">
<title>Type.Parse</title>
<ellipse fill="none" stroke="#000000" cx="1114" cy="-114" rx="50.0912" ry="18"/>
<text text-anchor="middle" x="1114" y="-110.3" font-family="Times,serif" font-size="14.00" fill="#000000">Type.Parse</text>
</g>
<!-- Type.AST -->
<g id="node8" class="node">
<title>Type.AST</title>
<ellipse fill="none" stroke="#000000" cx="976" cy="-42" rx="48.1917" ry="18"/>
<text text-anchor="middle" x="976" y="-38.3" font-family="Times,serif" font-size="14.00" fill="#000000">Type.AST</text>
</g>
<!-- Type.Parse&#45;&gt;Type.AST -->
<g id="edge8" class="edge">
<title>Type.Parse&#45;&gt;Type.AST</title>
<path fill="none" stroke="#000000" d="M1085.4063,-99.0816C1064.4513,-88.1485 1035.8195,-73.2102 1013.1023,-61.3577"/>
<polygon fill="#000000" stroke="#000000" points="1014.5698,-58.1756 1004.0849,-56.653 1011.3318,-64.3818 1014.5698,-58.1756"/>
</g>
<!-- Type.Kindcheck -->
<g id="node7" class="node">
<title>Type.Kindcheck</title>
<ellipse fill="none" stroke="#000000" cx="976" cy="-114" rx="69.5877" ry="18"/>
<text text-anchor="middle" x="976" y="-110.3" font-family="Times,serif" font-size="14.00" fill="#000000">Type.Kindcheck</text>
</g>
<!-- Type.Kindcheck&#45;&gt;Type.AST -->
<g id="edge7" class="edge">
<title>Type.Kindcheck&#45;&gt;Type.AST</title>
<path fill="none" stroke="#000000" d="M976,-95.8314C976,-88.131 976,-78.9743 976,-70.4166"/>
<polygon fill="#000000" stroke="#000000" points="979.5001,-70.4132 976,-60.4133 972.5001,-70.4133 979.5001,-70.4132"/>
</g>
<!-- Surface.Parse -->
<g id="node9" class="node">
<title>Surface.Parse</title>
<ellipse fill="none" stroke="#000000" cx="823" cy="-189" rx="59.2899" ry="18"/>
<text text-anchor="middle" x="823" y="-185.3" font-family="Times,serif" font-size="14.00" fill="#000000">Surface.Parse</text>
</g>
<!-- Surface.Parse&#45;&gt;Type.Parse -->
<g id="edge15" class="edge">
<title>Surface.Parse&#45;&gt;Type.Parse</title>
<path fill="none" stroke="#000000" d="M881.6498,-186.2574C939.9114,-182.8521 1024.7922,-175.8549 1055,-163 1068.2778,-157.3496 1080.8874,-147.7017 1091.0148,-138.4535"/>
<polygon fill="#000000" stroke="#000000" points="1093.4418,-140.9754 1098.2455,-131.5321 1088.6014,-135.9186 1093.4418,-140.9754"/>
</g>
<!-- Surface.AST -->
<g id="node10" class="node">
<title>Surface.AST</title>
<ellipse fill="none" stroke="#000000" cx="689" cy="-114" rx="56.59" ry="18"/>
<text text-anchor="middle" x="689" y="-110.3" font-family="Times,serif" font-size="14.00" fill="#000000">Surface.AST</text>
</g>
<!-- Surface.Parse&#45;&gt;Surface.AST -->
<g id="edge14" class="edge">
<title>Surface.Parse&#45;&gt;Surface.AST</title>
<path fill="none" stroke="#000000" d="M794.582,-173.0944C774.6843,-161.9576 747.8997,-146.9663 726.2875,-134.8699"/>
<polygon fill="#000000" stroke="#000000" points="727.8126,-131.7126 717.377,-129.8826 724.3937,-137.8209 727.8126,-131.7126"/>
</g>
<!-- Surface.AST&#45;&gt;Core.Expr -->
<!-- Surface.AST&#45;&gt;Type.AST -->
<g id="edge9" class="edge">
<title>Surface.AST&#45;&gt;Type.AST</title>
<path fill="none" stroke="#000000" d="M733.5289,-102.829C785.7029,-89.74 871.9098,-68.1132 926.241,-54.4831"/>
<polygon fill="#000000" stroke="#000000" points="927.1518,-57.8631 935.9995,-52.035 925.4484,-51.0735 927.1518,-57.8631"/>
</g>
<!-- Surface.Infer -->
<g id="node11" class="node">
<title>Surface.Infer</title>
<ellipse fill="none" stroke="#000000" cx="689" cy="-189" rx="57.3905" ry="18"/>
<text text-anchor="middle" x="689" y="-185.3" font-family="Times,serif" font-size="14.00" fill="#000000">Surface.Infer</text>
</g>
<!-- Surface.Infer&#45;&gt;Type.Kindcheck -->
<g id="edge11" class="edge">
<title>Surface.Infer&#45;&gt;Type.Kindcheck</title>
<path fill="none" stroke="#000000" d="M730.2538,-176.3322C738.3894,-174.2372 746.9121,-172.3208 755,-171 816.0711,-161.0271 834.8484,-181.1719 894,-163 912.4204,-157.3411 931.0124,-146.7245 945.8253,-136.8165"/>
<polygon fill="#000000" stroke="#000000" points="947.8464,-139.6743 954.0804,-131.1076 943.8648,-133.9169 947.8464,-139.6743"/>
</g>
<!-- Surface.Infer&#45;&gt;Surface.AST -->
<g id="edge10" class="edge">
<title>Surface.Infer&#45;&gt;Surface.AST</title>
<path fill="none" stroke="#000000" d="M689,-170.8446C689,-162.3401 689,-152.0076 689,-142.4964"/>
<polygon fill="#000000" stroke="#000000" points="692.5001,-142.2481 689,-132.2482 685.5001,-142.2482 692.5001,-142.2481"/>
</g>
<!-- Surface.Desugar -->
<g id="node12" class="node">
<title>Surface.Desugar</title>
<ellipse fill="none" stroke="#000000" cx="544" cy="-189" rx="69.5877" ry="18"/>
<text text-anchor="middle" x="544" y="-185.3" font-family="Times,serif" font-size="14.00" fill="#000000">Surface.Desugar</text>
</g>
<!-- Surface.Desugar&#45;&gt;Core.Expr -->
<g id="edge13" class="edge">
<title>Surface.Desugar&#45;&gt;Core.Expr</title>
<path fill="none" stroke="#000000" d="M531.7387,-170.9815C516.47,-149.4429 488.7478,-113.1594 459,-88 447.0038,-77.8542 432.4868,-68.6195 419.2454,-61.1309"/>
<polygon fill="#000000" stroke="#000000" points="420.7789,-57.98 410.3286,-56.2356 417.4101,-64.1162 420.7789,-57.98"/>
</g>
<!-- Surface.Desugar&#45;&gt;Surface.AST -->
<g id="edge12" class="edge">
<title>Surface.Desugar&#45;&gt;Surface.AST</title>
<path fill="none" stroke="#000000" d="M575.4628,-172.7261C597.3752,-161.3921 626.745,-146.2009 650.1233,-134.1086"/>
<polygon fill="#000000" stroke="#000000" points="651.8109,-137.1763 659.0851,-129.4732 648.5949,-130.9588 651.8109,-137.1763"/>
</g>
<!-- Interpret -->
<g id="node13" class="node">
<title>Interpret</title>
<ellipse fill="none" stroke="#000000" cx="544" cy="-301" rx="40.8928" ry="18"/>
<text text-anchor="middle" x="544" y="-297.3" font-family="Times,serif" font-size="14.00" fill="#000000">Interpret</text>
</g>
<!-- Interpret&#45;&gt;Untyped.Erase -->
<g id="edge20" class="edge">
<title>Interpret&#45;&gt;Untyped.Erase</title>
<path fill="none" stroke="#000000" d="M504.428,-295.9325C453.4142,-288.336 362.8493,-271.2002 292,-238 277.9294,-231.4065 263.8253,-221.6742 252.2123,-212.617"/>
<polygon fill="#000000" stroke="#000000" points="254.2177,-209.7382 244.2326,-206.1958 249.8292,-215.1918 254.2177,-209.7382"/>
</g>
<!-- Interpret&#45;&gt;Untyped.Eval -->
<g id="edge21" class="edge">
<title>Interpret&#45;&gt;Untyped.Eval</title>
<path fill="none" stroke="#000000" d="M503.8958,-296.8765C417.4606,-287.6125 216.3121,-263.9232 153,-238 137.9755,-231.8482 123.0657,-221.8778 110.9709,-212.5314"/>
<polygon fill="#000000" stroke="#000000" points="113.0746,-209.7321 103.0805,-206.2152 108.7,-215.1969 113.0746,-209.7321"/>
</g>
<!-- Interpret&#45;&gt;Core.Typecheck -->
<!-- Interpret&#45;&gt;Surface.Parse -->
<g id="edge17" class="edge">
<title>Interpret&#45;&gt;Surface.Parse</title>
<path fill="none" stroke="#000000" d="M581.6154,-293.7547C624.9446,-284.5181 697.5441,-266.2722 755,-238 768.9732,-231.1242 783.1478,-221.4335 794.9132,-212.4832"/>
<polygon fill="#000000" stroke="#000000" points="797.2946,-215.0641 803.0172,-206.1476 792.9833,-209.5493 797.2946,-215.0641"/>
</g>
<!-- Interpret&#45;&gt;Surface.Infer -->
<g id="edge18" class="edge">
<title>Interpret&#45;&gt;Surface.Infer</title>
<path fill="none" stroke="#000000" d="M564.4674,-285.1907C589.1933,-266.092 630.985,-233.8116 659.2655,-211.9673"/>
<polygon fill="#000000" stroke="#000000" points="661.4415,-214.7091 667.216,-205.8262 657.1624,-209.1693 661.4415,-214.7091"/>
</g>
<!-- Interpret&#45;&gt;Surface.Desugar -->
<g id="edge19" class="edge">
<title>Interpret&#45;&gt;Surface.Desugar</title>
<path fill="none" stroke="#000000" d="M544,-282.5055C544,-264.7282 544,-237.6184 544,-217.1587"/>
<polygon fill="#000000" stroke="#000000" points="547.5001,-217.1503 544,-207.1504 540.5001,-217.1504 547.5001,-217.1503"/>
</g>
<!-- Main -->
<g id="node14" class="node">
<title>Main</title>
<ellipse fill="none" stroke="#000000" cx="544" cy="-384" rx="29.795" ry="18"/>
<text text-anchor="middle" x="544" y="-380.3" font-family="Times,serif" font-size="14.00" fill="#000000">Main</text>
</g>
<!-- Main&#45;&gt;Interpret -->
<g id="edge23" class="edge">
<title>Main&#45;&gt;Interpret</title>
<path fill="none" stroke="#000000" d="M544,-365.9902C544,-355.2963 544,-341.4994 544,-329.3706"/>
<polygon fill="#000000" stroke="#000000" points="547.5001,-329.2612 544,-319.2612 540.5001,-329.2613 547.5001,-329.2612"/>
</g>
</g>
</svg>
